<svg xmlns="http://www.w3.org/2000/svg" width="351" height="95" viewBox="0 0 351 95" fill="none"><path d="M68.0383 38.4561C67.6789 35.0422 64.8041 32.4429 61.3662 32.4429H35.1451H32.0307H11.3797C7.9418 32.4429 5.06693 35.0422 4.70758 38.4561L0 83.6153C0 83.6153 2.28473e-06 93.4018 9.7865 94.0726H32.0307H35.1451H62.9594C72.7459 93.4018 72.7459 83.6153 72.7459 83.6153L68.0383 38.4561Z" fill="white"></path><path d="M36.7024 82.8727C28.4731 82.8727 21.2021 77.9255 18.1835 70.2712C17.7283 69.1093 18.2913 67.8036 19.4532 67.3484C20.6151 66.8932 21.9208 67.4562 22.376 68.6182C24.7118 74.5476 30.3417 78.3687 36.7024 78.3687C43.1348 78.3687 48.9564 74.308 51.1605 68.2708C51.5917 67.0969 52.8854 66.498 54.0473 66.9292C55.2212 67.3604 55.8202 68.6541 55.3889 69.816C52.538 77.6261 45.0275 82.8727 36.7024 82.8727Z" fill="#8DC63F"></path><path d="M57.581 28.3103C56.982 28.3103 56.431 27.903 56.2753 27.3041L53.7119 17.5296C52.0588 9.45599 44.9196 3.63441 36.7383 3.63441C28.473 3.63441 21.3218 9.51588 19.7526 17.6134L17.9319 25.3396C17.7642 26.0703 17.0335 26.5135 16.3028 26.3458C15.5721 26.1781 15.1289 25.4474 15.2966 24.7167L17.1054 17.0504C18.9141 7.73107 27.1794 0.927246 36.7383 0.927246C46.2013 0.927246 54.4546 7.64722 56.3472 16.9067L58.8866 26.6093C59.0783 27.328 58.6471 28.0707 57.9164 28.2624C57.8086 28.2983 57.7008 28.3103 57.581 28.3103Z" fill="white"></path><path d="M77.19 34.1558C76.6749 31.6762 75.0818 25.9385 74.2672 24.6567C74.2193 24.5609 74.1714 24.4411 74.1235 24.3213C73.7881 23.4589 73.1532 21.8538 71.4163 21.2908C70.6617 21.0512 69.4878 20.9434 68.1342 21.8178C67.1759 22.4287 65.7984 24.0818 64.4568 25.8905C63.0672 23.7703 61.2944 21.8897 59.1622 20.3924C55.7244 17.9727 51.6756 16.691 47.4592 16.691C47.004 16.691 46.5608 16.715 46.1056 16.7389C46.2853 16.116 46.4649 15.4452 46.6446 14.7385C47.1477 12.7381 47.5071 10.8335 46.3691 9.36011C45.9858 8.86899 45.1233 8.05444 43.5422 8.05444C43.1229 8.05444 42.7396 8.10236 42.3563 8.16226C42.2006 8.18621 42.0329 8.21016 41.8652 8.22214C39.4335 8.47369 31.0006 11.7438 29.7309 12.3308C28.0778 13.0974 26.856 14.4989 26.4487 16.0921C26.0894 17.5055 26.3888 18.9669 27.3112 20.2007C27.3711 20.2846 27.443 20.3684 27.5148 20.4523C24.8436 18.8112 21.8011 17.9487 18.6387 17.9487C14.9373 17.9487 11.4276 19.1107 8.4689 21.3147C4.18057 24.513 1.61715 29.6159 1.61715 34.9583C1.61715 42.4569 6.49243 48.8175 13.2364 51.0815C13.2963 51.4528 13.3801 51.7523 13.428 51.9439C15.0332 57.8254 17.0336 57.9452 17.8841 57.9931H18.0518C19.1777 57.9931 19.9444 57.4541 21.7891 56.1364C22.5437 55.5974 24.1009 54.4954 24.6759 54.2678C25.4306 54.124 27.1794 53.8965 28.6049 53.7168C30.5933 53.4532 31.3719 53.3574 31.8032 53.2496C32.2943 53.2257 33.2885 53.034 33.9833 52.1356C37.5768 55.3339 42.2964 57.2984 47.4711 57.2984C57.4493 57.2984 65.7504 50.0633 67.4514 40.5643C68.4935 40.9835 69.7513 41.4866 71.2965 42.0736C72.0751 42.3731 72.7579 42.4809 73.3568 42.4809C74.6385 42.4809 75.513 41.9538 75.9921 41.5346C78.0524 39.7857 77.717 36.6713 77.19 34.1558ZM10.6011 39.9773C10.5771 39.9534 10.5651 39.9175 10.5412 39.8935C10.5651 39.9175 10.5891 39.9294 10.6131 39.9534C10.6131 39.9534 10.6131 39.9654 10.6011 39.9773ZM67.6431 34.6349C67.5233 33.6527 67.3436 32.6944 67.0801 31.7481C68.0024 30.4065 68.9607 29.0649 69.7393 28.0587C70.2783 29.556 71.2965 32.9579 71.7757 35.2698C71.8715 35.713 71.9314 36.0963 71.9673 36.4077C70.482 35.8208 68.8409 35.15 67.6431 34.6349Z" fill="white"></path><path d="M77.19 34.1558C76.6749 31.6762 75.0818 25.9385 74.2672 24.6567C74.2193 24.5609 74.1714 24.4411 74.1235 24.3213C73.7881 23.4589 73.1532 21.8538 71.4163 21.2908C70.6617 21.0512 69.4878 20.9434 68.1342 21.8178C67.1759 22.4287 65.7984 24.0818 64.4568 25.8905C63.0672 23.7703 61.2944 21.8897 59.1622 20.3924C55.7244 17.9727 51.6756 16.691 47.4592 16.691C47.004 16.691 46.5608 16.715 46.1056 16.7389C46.2853 16.116 46.4649 15.4452 46.6446 14.7385C47.1477 12.7381 47.5071 10.8335 46.3691 9.36011C45.9858 8.86899 45.1233 8.05444 43.5422 8.05444C43.1229 8.05444 42.7396 8.10236 42.3563 8.16226C42.2006 8.18621 42.0329 8.21016 41.8652 8.22214C39.4335 8.47369 31.0006 11.7438 29.7309 12.3308C28.0778 13.0974 26.856 14.4989 26.4487 16.0921C26.0894 17.5055 26.3888 18.9669 27.3112 20.2007C27.3711 20.2846 27.443 20.3684 27.5148 20.4523C24.8436 18.8112 21.8011 17.9487 18.6387 17.9487C14.9373 17.9487 11.4276 19.1107 8.4689 21.3147C4.18057 24.513 1.61715 29.6159 1.61715 34.9583C1.61715 42.4569 6.49243 48.8175 13.2364 51.0815C13.2963 51.4528 13.3801 51.7523 13.428 51.9439C15.0332 57.8254 17.0336 57.9452 17.8841 57.9931H18.0518C19.1777 57.9931 19.9444 57.4541 21.7891 56.1364C22.5437 55.5974 24.1009 54.4954 24.6759 54.2678C25.4306 54.124 27.1794 53.8965 28.6049 53.7168C30.5933 53.4532 31.3719 53.3574 31.8032 53.2496C32.2943 53.2257 33.2885 53.034 33.9833 52.1356C37.5768 55.3339 42.2964 57.2984 47.4711 57.2984C57.4493 57.2984 65.7504 50.0633 67.4514 40.5643C68.4935 40.9835 69.7513 41.4866 71.2965 42.0736C72.0751 42.3731 72.7579 42.4809 73.3568 42.4809C74.6385 42.4809 75.513 41.9538 75.9921 41.5346C78.0524 39.7857 77.717 36.6713 77.19 34.1558ZM10.6011 39.9773C10.5771 39.9534 10.5651 39.9175 10.5412 39.8935C10.5651 39.9175 10.5891 39.9294 10.6131 39.9534C10.6131 39.9534 10.6131 39.9654 10.6011 39.9773ZM67.6431 34.6349C67.5233 33.6527 67.3436 32.6944 67.0801 31.7481C68.0024 30.4065 68.9607 29.0649 69.7393 28.0587C70.2783 29.556 71.2965 32.9579 71.7757 35.2698C71.8715 35.713 71.9314 36.0963 71.9673 36.4077C70.482 35.8208 68.8409 35.15 67.6431 34.6349Z" fill="white"></path><path d="M26.3529 23.3032C23.9452 21.6022 21.1063 20.7039 18.1476 20.7039C15.0571 20.7039 12.1104 21.6741 9.6308 23.5308C6.03723 26.214 3.89307 30.4903 3.89307 34.9584C3.89307 42.8163 10.2896 49.2129 18.1476 49.2129C26.0055 49.2129 32.4021 42.8163 32.4021 34.9584C32.3901 30.3346 30.1381 25.9744 26.3529 23.3032ZM18.1356 47.2124C11.3797 47.2124 5.88151 41.7143 5.88151 34.9584C5.88151 31.1731 7.58247 27.7113 10.5292 25.3755C10.8287 28.8493 14.7457 30.3227 14.7457 30.3227C14.1587 30.1909 13.5718 27.3879 15.2727 26.9567C16.9737 26.5254 16.7101 31.832 16.9018 31.7002C17.0935 31.5684 21.3459 28.6936 20.9506 26.2739C20.6751 24.549 19.9923 23.3751 18.8902 22.7402C21.1662 22.872 23.3343 23.6266 25.191 24.9443C28.4491 27.2442 30.3897 30.9815 30.3897 34.9584C30.3897 41.7143 24.8915 47.2124 18.1356 47.2124Z" fill="#8DC63F"></path><path d="M13.8473 35.4372L14.3504 35.5211C14.3504 35.5211 13.4041 33.8441 11.6791 34.5748C9.81048 35.3773 10.6849 37.1501 10.9245 37.8689C10.9245 37.8689 10.5532 36.671 11.4156 35.8924C11.3078 36.096 11.2479 36.3356 11.2479 36.5872C11.2479 37.4376 11.9427 38.1324 12.7931 38.1324C13.6436 38.1324 14.3384 37.4376 14.3384 36.5872C14.3623 36.12 14.1587 35.7127 13.8473 35.4372Z" fill="#8DC63F"></path><path d="M25.4185 32.5151L25.9216 32.5989C25.9216 32.5989 24.9753 30.9219 23.2503 31.6526C21.3817 32.4552 22.2561 34.228 22.4957 34.9467C22.4957 34.9467 22.1244 33.7489 22.9868 32.9703C22.879 33.1739 22.8191 33.4135 22.8191 33.665C22.8191 34.5155 23.5139 35.2103 24.3644 35.2103C25.2148 35.2103 25.9096 34.5155 25.9096 33.665C25.9336 33.1979 25.7299 32.7906 25.4185 32.5151Z" fill="#8DC63F"></path><path d="M18.2674 44.7326C15.1889 44.7326 12.8171 43.2353 12.7692 43.2114C12.1942 42.84 12.0265 42.0614 12.3979 41.4745C12.7692 40.8995 13.5478 40.7318 14.1228 41.1031C14.1467 41.1151 15.7039 42.0974 17.7643 42.2291C20.4115 42.3968 22.6875 41.0911 24.5322 38.3481C24.9155 37.7731 25.6941 37.6174 26.269 38.0127C26.844 38.396 26.9997 39.1746 26.6045 39.7495C23.9811 43.6665 20.8667 44.7326 18.2674 44.7326Z" fill="#8DC63F"></path><path d="M47.483 54.5433C37.8043 54.5433 29.9344 46.6733 29.9344 36.9947C29.9344 31.4007 32.5098 26.2738 37.0017 22.9198C40.0443 20.6439 43.6738 19.446 47.483 19.446C51.1245 19.446 54.6222 20.5481 57.5929 22.6443C62.2526 25.9384 65.0316 31.2929 65.0316 36.9947C65.0316 46.6614 57.1497 54.5433 47.483 54.5433ZM47.483 21.9017C44.2009 21.9017 41.0864 22.9318 38.4751 24.8843C34.618 27.7592 32.402 32.1793 32.402 36.9827C32.402 45.2958 39.1699 52.0637 47.483 52.0637C55.7961 52.0637 62.564 45.2958 62.564 36.9827C62.564 32.0834 60.1683 27.4717 56.1675 24.6448C53.616 22.8599 50.6094 21.9017 47.483 21.9017Z" fill="#FF2189"></path><path d="M41.4338 22.2132C41.4338 22.2132 38.8464 25.8906 38.9662 27.5197C38.9662 27.5197 45.2789 28.1785 48.5491 24.1298C48.5491 24.1298 46.4648 33.5928 59.7131 35.4855C59.7131 35.4855 60.6953 33.3293 61.2823 30.2628C61.2823 30.2628 54.8857 17.1702 41.4338 22.2132Z" fill="#FF2189"></path><path d="M42.7635 33.7722C42.1646 32.3827 39.7449 31.7119 38.5351 32.6582C37.0617 33.8201 37.2174 35.0898 37.2174 35.3773C37.2174 36.3476 38.008 37.1262 38.9663 37.1262C39.9246 37.1262 40.7152 36.3356 40.7152 35.3773C40.7152 34.5029 40.0683 33.7722 39.2298 33.6404C39.2298 33.6404 40.5235 33.305 41.5058 34.1794C42.488 35.0419 42.2125 37.21 42.2125 37.21C42.7396 36.7788 43.3624 35.1617 42.7635 33.7722Z" fill="#FF2189"></path><path d="M56.7905 38.552C56.1916 37.1624 53.7719 36.4916 52.5621 37.438C51.0887 38.5999 51.2444 39.8696 51.2444 40.1571C51.2444 41.1273 52.035 41.906 52.9933 41.906C53.9516 41.906 54.7422 41.1154 54.7422 40.1571C54.7422 39.2826 54.0953 38.552 53.2568 38.4202C53.2568 38.4202 54.5505 38.0848 55.5327 38.9592C56.515 39.8217 56.2395 41.9898 56.2395 41.9898C56.7785 41.5466 57.4014 39.9295 56.7905 38.552Z" fill="#FF2189"></path><path d="M37.421 23.0159C37.421 23.0159 30.6651 20.0811 29.5391 18.5598C28.4131 17.0386 29.5391 15.4694 30.9046 14.8345C32.2702 14.1996 40.3078 11.1571 42.1645 10.9654C44.0212 10.7738 44.9555 10.1868 43.9733 14.0559C42.991 17.925 41.9609 20.68 41.9609 20.68L37.421 23.0159Z" fill="#FF2189"></path><path d="M63.7979 31.7001C63.7979 31.7001 68.1222 25.1238 69.6435 24.1416C71.1648 23.1593 71.4043 25.2676 71.8954 26.0462C72.3866 26.8248 73.9078 31.8678 74.4948 34.7067C75.0817 37.5456 75.1776 40.5882 72.2907 39.4861C69.4039 38.3841 64.6963 36.4196 64.5526 36.2519C64.4088 36.0842 63.7979 31.185 63.7979 31.185" fill="#FF2189"></path><path d="M16.3507 50.0514C16.3507 50.0514 15.7158 50.1113 16.207 51.908C16.6981 53.7048 17.6084 55.8849 18.1714 55.9209C18.7225 55.9568 22.7113 52.5549 24.1727 52.2674C25.6341 51.9799 30.5812 51.4169 31.264 51.2612C31.9468 51.0935 31.8989 51.3211 32.0067 50.9018C32.1025 50.4826 30.1141 45.3558 29.6948 45.3797C29.2756 45.4037 24.6039 50.5664 24.0769 50.6623C23.5498 50.7701 16.3507 50.0514 16.3507 50.0514Z" fill="#8DC63F"></path><path d="M113.928 59.0352V52.9621C113.928 51.3569 113.976 50.0992 114.072 49.2008C114.168 48.3024 114.503 47.5597 115.09 46.9847C115.438 46.6374 115.881 46.3139 116.42 46.0265C116.947 45.739 117.582 45.5952 118.324 45.5952C118.899 45.5952 119.474 45.703 120.037 45.9306C120.6 46.1582 121.103 46.4936 121.559 46.9488C122.17 47.5597 122.517 48.3144 122.613 49.2128C122.709 50.1112 122.757 51.3689 122.757 52.974V73.9485C122.757 75.5536 122.709 76.7994 122.613 77.6858C122.517 78.5722 122.182 79.3029 121.607 79.8779C121.247 80.2373 120.804 80.5487 120.277 80.8362C119.75 81.1237 119.115 81.2674 118.372 81.2674C117.091 81.2674 115.989 80.8122 115.09 79.9138C114.515 79.3389 114.168 78.5842 114.072 77.6738C113.976 76.7635 113.928 75.5177 113.928 73.9365V66.1744H101.243V73.9365C101.243 75.5417 101.195 76.7874 101.099 77.6738C101.003 78.5603 100.668 79.291 100.093 79.8659C99.7696 80.1894 99.3384 80.5008 98.7874 80.8122C98.2364 81.1117 97.6015 81.2674 96.8588 81.2674C96.2839 81.2674 95.6969 81.1596 95.122 80.932C94.547 80.7044 94.0319 80.369 93.5767 79.9138C93.0017 79.3389 92.6544 78.5842 92.5585 77.6738C92.4627 76.7635 92.4148 75.5177 92.4148 73.9365V52.9141C92.4148 51.309 92.4627 50.0632 92.5585 49.1768C92.6544 48.2904 92.9898 47.5597 93.5767 46.9847C93.9001 46.6613 94.3314 46.3499 94.8824 46.0384C95.4334 45.739 96.0682 45.5833 96.8109 45.5833C98.0926 45.5833 99.1947 46.0384 100.093 46.9368C100.704 47.5477 101.051 48.3024 101.135 49.2008C101.219 50.0992 101.255 51.3449 101.255 52.9141V59.0352H113.928Z" fill="white"></path><path d="M200.533 65.3839C200.641 66.2344 200.785 66.989 200.964 67.6479C201.144 68.3067 201.348 68.8697 201.587 69.3368C201.827 69.804 202.09 70.2113 202.378 70.5706C203.025 71.3732 203.839 71.9961 204.834 72.4273C205.828 72.8585 206.894 73.0742 208.02 73.0742C209.182 73.0742 210.152 72.8945 210.967 72.5471C211.769 72.1997 212.44 71.7445 212.967 71.1935C213.494 70.6425 213.925 70.0556 214.249 69.4087C214.572 68.7619 214.848 68.151 215.063 67.576C215.159 67.3244 215.291 67.013 215.447 66.6656C215.602 66.3182 215.83 65.9709 216.117 65.6235C216.405 65.2881 216.776 65.0006 217.231 64.761C217.687 64.5215 218.25 64.4017 218.92 64.4017C219.915 64.4017 220.813 64.749 221.616 65.4678C222.418 66.1745 222.825 67.1088 222.825 68.2588C222.825 69.7681 222.43 71.2774 221.639 72.7627C220.849 74.2481 219.843 75.5178 218.621 76.5479C218.046 77.063 217.423 77.5302 216.764 77.9494C216.105 78.3687 215.363 78.7161 214.548 79.0155C213.734 79.303 212.811 79.5306 211.805 79.6863C210.799 79.8421 209.625 79.9259 208.307 79.9259C205.409 79.9259 203.001 79.5426 201.06 78.764C199.12 77.9974 197.443 76.7995 196.005 75.1944C195.047 74.1642 194.292 73.0861 193.717 71.9602C193.142 70.8342 192.687 69.7082 192.364 68.5822C192.04 67.4562 191.813 66.3542 191.693 65.2761C191.585 64.198 191.525 63.1799 191.525 62.2096C191.525 59.4785 191.921 56.9989 192.699 54.7829C193.478 52.5668 194.58 50.6742 196.017 49.117C197.443 47.5598 199.18 46.35 201.216 45.4995C203.252 44.649 205.54 44.2178 208.08 44.2178C210.847 44.2178 213.171 44.6131 215.051 45.4036C216.932 46.1942 218.453 47.1525 219.603 48.3025C220.765 49.4404 221.592 50.6383 222.083 51.896C222.574 53.1538 222.825 54.2319 222.825 55.1303C222.825 55.5854 222.742 56.0406 222.562 56.5078C222.382 56.975 222.131 57.3942 221.795 57.7655C221.46 58.1369 221.053 58.4363 220.561 58.6759C220.07 58.9155 219.543 59.0353 218.968 59.0353C218.321 59.0353 217.794 58.9394 217.375 58.7478C216.956 58.5561 216.596 58.2926 216.285 57.9812C215.974 57.6577 215.722 57.3104 215.518 56.9151C215.315 56.5317 215.123 56.1484 214.967 55.7531C214.321 54.3996 213.458 53.3095 212.368 52.471C211.278 51.6325 209.865 51.2133 208.128 51.2133C206.846 51.2133 205.756 51.4409 204.869 51.8841C203.983 52.3392 203.252 52.9262 202.677 53.6449C202.102 54.3636 201.647 55.1662 201.324 56.0286C201 56.8911 200.773 57.7536 200.629 58.5801C200.485 59.4186 200.401 60.1732 200.389 60.844C200.378 61.5148 200.366 62.0299 200.366 62.3893C200.366 63.5392 200.425 64.5334 200.533 65.3839Z" fill="white"></path><path d="M251.095 73.1699C251.095 74.6553 251.047 75.7933 250.951 76.6198C250.855 77.4343 250.544 78.1171 250.041 78.6681C249.681 79.0514 249.274 79.3629 248.783 79.5785C248.304 79.8061 247.717 79.9139 247.046 79.9139C246.495 79.9139 245.968 79.8061 245.453 79.6024C244.938 79.3988 244.471 79.0754 244.051 78.6681C243.5 78.1171 243.189 77.4343 243.093 76.5958C242.997 75.7573 242.949 74.6193 242.949 73.1699V65.8391C242.949 65.2282 242.937 64.5813 242.902 63.8865C242.866 63.1918 242.746 62.5689 242.518 62.0059C242.291 61.4429 241.931 60.9758 241.428 60.6044C240.925 60.2331 240.218 60.0534 239.284 60.0534C238.422 60.0534 237.643 60.257 236.972 60.6523C236.301 61.0596 235.798 61.5627 235.475 62.1736C235.319 62.497 235.187 62.8085 235.092 63.1199C234.996 63.4314 234.912 63.7668 234.852 64.1381C234.792 64.5094 234.744 64.9287 234.708 65.3958C234.672 65.863 234.66 66.438 234.66 67.1088V73.1819C234.66 74.6673 234.612 75.8052 234.517 76.6317C234.421 77.4463 234.097 78.1291 233.558 78.6801C233.271 78.9676 232.875 79.2551 232.372 79.5186C231.869 79.7941 231.27 79.9259 230.564 79.9259C230.013 79.9259 229.486 79.8181 228.97 79.6144C228.455 79.4108 227.988 79.0874 227.569 78.6801C227.018 78.165 226.707 77.4822 226.623 76.6317C226.539 75.7813 226.503 74.6313 226.503 73.1819V50.9976C226.503 49.5242 226.539 48.3743 226.623 47.5478C226.707 46.7332 227.018 46.0504 227.569 45.4994C227.856 45.2479 228.252 44.9724 228.755 44.6849C229.258 44.3974 229.845 44.2537 230.516 44.2537C231.702 44.2537 232.72 44.6729 233.558 45.5114C234.109 46.0624 234.421 46.7452 234.517 47.5837C234.612 48.4222 234.66 49.5602 234.66 51.0096V57.5619C234.888 57.2744 235.211 56.915 235.655 56.4958C236.086 56.0765 236.625 55.6692 237.272 55.262C237.918 54.8667 238.673 54.5193 239.536 54.2198C240.398 53.9324 241.404 53.7886 242.53 53.7886C244.686 53.7886 246.339 54.1839 247.501 54.9745C248.663 55.7651 249.502 56.7114 250.029 57.8254C250.556 58.9394 250.867 60.0654 250.975 61.2273C251.071 62.3892 251.119 63.3355 251.119 64.0782V73.1699H251.095Z" fill="white"></path><path d="M254.569 62.2936C255.048 60.7723 255.826 59.3708 256.904 58.1251C257.983 56.8793 259.384 55.8372 261.121 55.0106C262.858 54.1841 264.966 53.7769 267.434 53.7769C269.841 53.7769 271.914 54.1602 273.627 54.9388C275.351 55.7054 276.765 56.7116 277.867 57.9334C278.981 59.1552 279.784 60.5447 280.299 62.102C280.814 63.6592 281.065 65.2164 281.065 66.7496C281.065 68.2829 280.802 69.8521 280.299 71.4213C279.784 73.0025 278.969 74.4159 277.867 75.6617C276.765 76.9075 275.339 77.9376 273.627 78.7282C271.902 79.5188 269.841 79.9141 267.434 79.9141C265.373 79.9141 263.505 79.6027 261.84 78.9798C260.163 78.3569 258.737 77.4585 257.551 76.3086C256.365 75.1466 255.443 73.7571 254.808 72.14C254.161 70.5229 253.85 68.7141 253.85 66.7137C253.85 65.3002 254.089 63.8269 254.569 62.2936ZM262.235 69.1933C262.391 70.0438 262.69 70.8224 263.097 71.5291C263.517 72.2358 264.08 72.8108 264.786 73.266C265.493 73.7212 266.391 73.9368 267.482 73.9368C268.188 73.9368 268.871 73.805 269.53 73.5295C270.189 73.254 270.764 72.8348 271.267 72.2478C271.77 71.6728 272.165 70.9421 272.477 70.0557C272.776 69.1693 272.932 68.1152 272.932 66.8934C272.932 65.995 272.824 65.1086 272.62 64.2461C272.417 63.3837 272.093 62.617 271.662 61.9582C271.231 61.2994 270.668 60.7723 269.973 60.3651C269.278 59.9578 268.452 59.7661 267.494 59.7661C266.523 59.7661 265.697 59.9698 265.014 60.3651C264.319 60.7723 263.756 61.2874 263.301 61.9343C262.846 62.5811 262.522 63.3118 262.307 64.1503C262.091 64.9888 261.995 65.8393 261.995 66.7017C261.995 67.5163 262.079 68.3428 262.235 69.1933Z" fill="white"></path><path d="M304.04 68.5943C304.1 69.337 304.304 70.0916 304.639 70.8822C304.975 71.6728 305.514 72.3795 306.256 73.0024C306.999 73.6253 308.041 73.9487 309.395 73.9487C310.616 73.9487 311.599 73.6612 312.341 73.0863C313.084 72.5113 313.707 71.9004 314.222 71.2535C314.605 70.7744 314.953 70.3551 315.264 69.9958C315.564 69.6364 315.863 69.3489 316.151 69.1333C316.438 68.9057 316.749 68.738 317.073 68.6302C317.396 68.5224 317.768 68.4625 318.187 68.4625C319.049 68.4625 319.78 68.75 320.379 69.313C320.978 69.876 321.277 70.6546 321.277 71.6488C321.277 72.1639 321.11 72.8826 320.774 73.8169C320.439 74.7513 319.816 75.6617 318.918 76.56C318.019 77.4584 316.773 78.249 315.204 78.9198C313.623 79.5906 311.599 79.926 309.131 79.926C307.454 79.926 305.801 79.7104 304.16 79.2792C302.519 78.8479 301.058 78.0693 299.776 76.9434C298.937 76.2007 298.267 75.3981 297.751 74.5357C297.236 73.6732 296.841 72.7868 296.542 71.8884C296.254 70.99 296.062 70.1156 295.967 69.2651C295.871 68.4146 295.823 67.636 295.823 66.9293C295.823 66.1626 295.883 65.3601 295.991 64.5216C296.098 63.6831 296.302 62.8446 296.59 61.9941C296.877 61.1436 297.26 60.2931 297.751 59.4666C298.243 58.6401 298.841 57.8375 299.584 57.1068C300.039 56.6876 300.53 56.2803 301.081 55.8731C301.633 55.4658 302.291 55.1184 303.058 54.807C303.825 54.5075 304.723 54.2559 305.729 54.0882C306.735 53.9086 307.921 53.8247 309.275 53.8247C311.335 53.8247 312.988 54.0283 314.246 54.4236C315.504 54.8309 316.594 55.346 317.528 55.9928C317.851 56.2204 318.211 56.5079 318.618 56.8553C319.013 57.2027 319.397 57.6099 319.756 58.0651C320.103 58.5203 320.403 59.0234 320.642 59.5864C320.882 60.1494 321.002 60.7364 321.002 61.3473C321.002 62.3415 320.642 63.168 319.936 63.8268C319.229 64.4856 318.355 64.821 317.336 64.821C316.534 64.821 315.899 64.5934 315.432 64.1502C314.965 63.6951 314.378 62.9763 313.671 61.9821C313.383 61.5629 312.844 61.0957 312.054 60.5806C311.263 60.0656 310.341 59.814 309.275 59.814C307.825 59.814 306.58 60.4009 305.538 61.5748C304.495 62.7487 303.968 64.6054 303.968 67.1449C303.944 67.3485 303.98 67.8516 304.04 68.5943Z" fill="white"></path><path d="M179.128 74.5713C179.14 76.0446 179.092 77.1946 178.996 78.0211C178.9 78.8476 178.6 79.5304 178.085 80.0455C177.798 80.333 177.403 80.6204 176.912 80.896C176.42 81.1715 175.809 81.3152 175.103 81.3152C174.552 81.3152 174.025 81.2194 173.51 81.0157C172.994 80.8121 172.527 80.5006 172.108 80.0814C171.557 79.5424 171.234 78.8596 171.138 78.0211C171.042 77.1946 170.982 76.0566 170.982 74.6192L170.922 61.7542L169.521 61.7183C168.167 61.6584 167.257 61.3349 166.766 60.748C166.287 60.161 166.035 59.5142 166.035 58.7955C166.035 58.4002 166.107 58.0169 166.251 57.6216C166.394 57.2263 166.61 56.8789 166.897 56.5914C167.317 56.1602 167.796 55.9206 168.347 55.8727C168.898 55.8248 169.389 55.7889 169.844 55.7889H170.91L170.898 54.2436C170.898 53.1775 170.97 52.1474 171.126 51.1292C171.282 50.111 171.641 49.2006 172.192 48.3741C172.755 47.5476 173.569 46.8888 174.671 46.3857C175.762 45.8826 177.259 45.631 179.151 45.619C180.757 45.6071 182.062 45.6909 183.057 45.8466C184.051 46.0024 184.829 46.218 185.392 46.5055C185.955 46.793 186.339 47.1403 186.53 47.5356C186.722 47.9309 186.818 48.3741 186.83 48.8652C186.83 49.6678 186.59 50.3146 186.111 50.7938C185.632 51.2729 185.081 51.5245 184.47 51.5245C184.338 51.5245 184.135 51.5125 183.847 51.4766C183.56 51.4406 183.26 51.4047 182.961 51.3568C182.649 51.3089 182.362 51.2729 182.086 51.237C181.811 51.2011 181.631 51.1891 181.535 51.1891C180.888 51.1891 180.397 51.3089 180.062 51.5365C179.726 51.7641 179.487 52.0396 179.343 52.3869C179.199 52.7223 179.116 53.0817 179.08 53.477C179.044 53.8603 179.032 54.2197 179.032 54.5431V55.7529C180.218 55.7529 181.056 55.7649 181.535 55.7889C182.014 55.8128 182.47 55.9326 182.889 56.1243C183.248 56.292 183.584 56.5914 183.907 57.0466C184.23 57.5018 184.398 58.0408 184.398 58.6637C184.398 59.2147 184.254 59.7538 183.967 60.2569C183.679 60.76 183.332 61.1073 182.913 61.2631C182.685 61.3589 182.482 61.4427 182.29 61.5146C182.098 61.5865 181.859 61.6344 181.595 61.6703C181.32 61.7063 180.972 61.7183 180.565 61.7183C180.182 61.7183 179.679 61.7183 179.068 61.7302L179.128 74.5713Z" fill="white"></path><path d="M141.97 65.2164C142.653 65.0726 143.132 64.9408 143.42 64.833C143.707 64.7252 144.018 64.6054 144.342 64.4857C144.318 63.9346 144.282 63.4435 144.222 62.9883C144.162 62.5332 144.018 62.1379 143.779 61.8025C143.539 61.4671 143.168 61.2035 142.653 61.0119C142.138 60.8202 141.431 60.7244 140.533 60.7124C139.73 60.7004 138.856 60.8082 137.897 61.0478C136.939 61.2874 136.184 61.8264 135.621 62.6529C135.154 63.3836 134.675 63.9945 134.172 64.4857C133.669 64.9768 132.95 65.2164 132.016 65.1924C131.692 65.1924 131.345 65.1205 130.962 65.0007C130.578 64.881 130.219 64.7013 129.884 64.4497C129.548 64.1982 129.273 63.8867 129.057 63.5154C128.842 63.1441 128.734 62.7009 128.746 62.1858C128.758 61.5749 128.866 60.9879 129.093 60.4369C129.309 59.8739 129.596 59.3708 129.944 58.9276C130.291 58.4844 130.662 58.1011 131.07 57.7657C131.477 57.4303 131.86 57.1668 132.22 56.9392C132.711 56.6637 133.226 56.4001 133.777 56.1725C134.328 55.9449 134.927 55.7533 135.574 55.6215C136.22 55.4897 136.951 55.3939 137.778 55.322C138.604 55.2622 139.538 55.2262 140.605 55.2502C142.821 55.2861 144.677 55.4898 146.163 55.8491C147.648 56.2085 148.858 56.7834 149.768 57.5501C150.691 58.3167 151.337 59.3349 151.721 60.5687C152.104 61.8144 152.272 63.3357 152.248 65.1325L152.128 71.9842C152.116 72.5592 152.128 73.1102 152.176 73.6253C152.212 74.1404 152.344 74.7273 152.559 75.3742C152.739 75.9252 152.883 76.3564 152.966 76.6559C153.05 76.9554 153.134 77.2069 153.194 77.4105C153.254 77.6142 153.29 77.7699 153.302 77.8897C153.314 78.0095 153.326 78.1772 153.314 78.3688C153.302 79.1714 152.931 79.9021 152.188 80.5729C151.457 81.2317 150.511 81.5551 149.349 81.5312C148.223 81.5072 147.372 81.1718 146.809 80.501C146.246 79.8302 145.707 78.848 145.216 77.5543C143.779 78.7162 142.282 79.6386 140.712 80.3213C139.143 81.0041 137.49 81.3275 135.753 81.2916C134.172 81.2676 132.842 81.0041 131.764 80.525C130.686 80.0458 129.812 79.4349 129.141 78.6922C128.482 77.9616 128.003 77.147 127.716 76.2846C127.428 75.4101 127.284 74.5716 127.296 73.7691C127.32 72.4514 127.596 71.3614 128.123 70.4989C128.65 69.6364 129.285 68.9537 130.015 68.4625C130.746 67.9594 131.501 67.5881 132.279 67.3485C133.058 67.109 133.681 66.9413 134.172 66.8454L141.97 65.2164ZM143.324 69.337C142.857 69.4568 142.365 69.5765 141.85 69.6963C141.335 69.8161 140.844 69.9239 140.377 70.0317C139.91 70.1396 139.574 70.2234 139.383 70.2833C138.089 70.6786 137.119 71.0619 136.472 71.4332C135.825 71.8046 135.49 72.4634 135.478 73.3977C135.466 74.0685 135.741 74.7393 136.292 75.3862C136.843 76.033 137.67 76.3684 138.76 76.3924C139.083 76.3924 139.455 76.3684 139.898 76.2965C140.329 76.2247 140.784 76.0809 141.251 75.8653C141.719 75.6497 142.162 75.3622 142.569 75.0148C142.976 74.6674 143.336 74.2123 143.635 73.6373C143.994 72.9665 144.21 72.2717 144.246 71.553C144.294 70.8343 144.306 70.0078 144.294 69.0735C144.102 69.1214 143.791 69.2172 143.324 69.337Z" fill="white"></path><path d="M165.855 73.6135C166.035 75.015 166.131 76.129 166.143 76.9316C166.155 77.7342 165.939 78.417 165.52 78.968C165.256 79.3153 164.897 79.6388 164.454 79.9502C164.011 80.2497 163.472 80.4533 162.825 80.5372C162.31 80.609 161.783 80.5731 161.28 80.4294C160.764 80.2976 160.285 80.058 159.83 79.7106C159.243 79.2554 158.848 78.6445 158.656 77.854C158.465 77.0753 158.273 75.9973 158.093 74.6197L155.374 53.5255C155.194 52.124 155.099 51.0219 155.087 50.2314C155.075 49.4408 155.302 48.746 155.757 48.1591C156.033 47.8476 156.38 47.5242 156.823 47.2008C157.267 46.8774 157.806 46.6737 158.453 46.6019C158.968 46.53 159.495 46.5659 160.01 46.7097C160.525 46.8534 161.004 47.081 161.459 47.4284C162.01 47.8836 162.394 48.5065 162.585 49.2851C162.777 50.0637 162.968 51.1417 163.148 52.5193L165.855 73.6135Z" fill="white"></path><path d="M291.223 74.6073C291.031 76.0687 290.84 77.2066 290.636 78.0092C290.432 78.8117 290.037 79.4466 289.414 79.9258C289.091 80.1773 288.66 80.4049 288.133 80.6085C287.606 80.8122 286.983 80.8721 286.288 80.7882C285.749 80.7163 285.234 80.5486 284.743 80.2731C284.263 79.9976 283.832 79.6263 283.473 79.1591C282.994 78.5842 282.778 77.8654 282.802 77.003C282.826 76.1525 282.934 75.0026 283.114 73.5651L284.719 61.0355C284.803 60.3408 284.898 59.7059 284.982 59.1549C285.066 58.6039 285.174 58.1128 285.294 57.6935C285.413 57.2743 285.569 56.9029 285.749 56.5795C285.94 56.2681 286.168 55.9926 286.456 55.777C286.851 55.4655 287.306 55.2259 287.845 55.0343C288.372 54.8426 288.959 54.7827 289.594 54.8666C289.822 54.8905 290.121 54.9744 290.492 55.1062C290.864 55.2379 291.247 55.4415 291.63 55.7171C292.014 55.9926 292.349 56.3759 292.625 56.867C292.9 57.3581 293.056 57.957 293.104 58.6758C293.104 58.9393 293.104 59.1669 293.116 59.3825C293.116 59.5981 293.104 59.8257 293.08 60.0773C293.056 60.3048 293.02 60.5684 292.972 60.8918C292.936 61.2152 292.876 61.6105 292.816 62.0897L291.223 74.6073Z" fill="white"></path><path d="M332.992 69.7203C333.352 70.8224 333.831 71.6489 334.43 72.2119C335.017 72.7749 335.64 73.1702 336.298 73.4097C336.957 73.6493 337.592 73.7451 338.203 73.7092C338.814 73.6733 339.305 73.6014 339.676 73.4936C340.323 73.3019 340.898 73.0264 341.401 72.691C341.904 72.3556 342.348 72.0082 342.719 71.6369C343.09 71.2656 343.414 70.9182 343.689 70.5828C343.953 70.2474 344.18 69.9719 344.348 69.7563C344.743 69.2651 345.127 68.786 345.522 68.3188C345.917 67.8517 346.42 67.5163 347.031 67.3366C347.894 67.0731 348.696 67.1449 349.439 67.5642C350.182 67.9715 350.661 68.5225 350.864 69.1933C351.068 69.8761 351.044 70.6307 350.781 71.4932C350.517 72.3556 350.002 73.1941 349.235 74.0446C348.469 74.8951 347.451 75.7096 346.169 76.4882C344.887 77.2549 343.342 77.9257 341.533 78.4767C339.006 79.2433 336.79 79.5188 334.861 79.3152C332.932 79.1115 331.279 78.5725 329.89 77.722C328.5 76.8715 327.362 75.7575 326.464 74.404C325.566 73.0504 324.883 71.601 324.416 70.0557C324.02 68.762 323.805 67.3246 323.745 65.7554C323.685 64.1862 323.949 62.617 324.547 61.0838C325.146 59.5385 326.117 58.1131 327.482 56.7955C328.848 55.4778 330.776 54.4357 333.268 53.681C335.544 52.9863 337.556 52.7946 339.305 53.0821C341.054 53.3696 342.551 53.9086 343.773 54.6992C345.007 55.4898 345.977 56.4002 346.72 57.4303C347.451 58.4725 347.942 59.4068 348.193 60.2333C348.265 60.4849 348.325 60.7963 348.385 61.1796C348.433 61.5629 348.433 61.9822 348.385 62.4374C348.337 62.8925 348.193 63.3477 347.966 63.8029C347.738 64.2581 347.379 64.6774 346.888 65.0607C346.48 65.3841 345.905 65.6836 345.151 65.971C344.396 66.2585 343.761 66.4741 343.234 66.6299L332.992 69.7203ZM340.778 62.8207C340.359 61.2275 339.569 60.0896 338.407 59.3828C337.245 58.6761 335.963 58.5324 334.574 58.9516C333.591 59.2511 332.885 59.7062 332.441 60.3291C332.01 60.952 331.735 61.5989 331.615 62.2697C331.495 62.9405 331.471 63.5873 331.543 64.2102C331.615 64.8331 331.675 65.2763 331.723 65.5638L340.778 62.8207Z" fill="white"></path><path d="M292.205 42.0974L292.864 43.8702C292.996 44.2056 293.271 44.4572 293.619 44.553L295.451 45.0202C296.338 45.2477 296.577 46.3737 295.871 46.9367L294.385 48.1106C294.098 48.3382 293.954 48.6856 293.978 49.045L294.11 50.9376C294.17 51.8479 293.164 52.4229 292.409 51.9198L290.828 50.8657C290.528 50.6621 290.145 50.6261 289.81 50.7579L288.049 51.4646C287.21 51.8 286.336 51.0334 286.587 50.147L287.102 48.3262C287.198 47.9789 287.114 47.6075 286.887 47.332L285.677 45.8826C285.09 45.1879 285.569 44.1218 286.468 44.0858L288.36 44.002C288.72 43.99 289.055 43.7983 289.247 43.4869L290.253 41.8818C290.732 41.1271 291.894 41.2469 292.205 42.0974Z" fill="white"></path><path d="M45.7462 44.1337C45.3868 44.0259 44.9436 43.7983 44.3447 43.5587C43.7817 43.2114 43.3146 42.9957 43.0151 42.7682C41.937 41.9895 40.0923 40.9115 39.6611 41.1391C39.2299 41.3667 39.3616 41.9177 39.6491 42.7682C39.6491 42.7682 40.7152 46.4935 42.4521 47.2601C44.0692 48.2543 47.7945 46.8169 47.7945 46.8169C48.645 46.5294 49.1721 46.3138 49.0882 45.8227C48.9924 45.3316 47.0279 44.517 45.7462 44.1337Z" fill="#FF2189"></path></svg>